<svg width="100" height="100" viewBox="0 0 100 100" fill="none" xmlns="http://www.w3.org/2000/svg">
<path d="M19.7879 79.5374C16.1919 79.5374 13.4889 78.6445 11.6789 76.8586C9.89296 75.0726 9 72.4179 9 68.8943V31.3177C9 27.77 9.89296 25.1152 11.6789 23.3534C13.4889 21.5675 16.1919 20.6746 19.7879 20.6746H78.3612C81.9571 20.6746 84.6481 21.5675 86.434 23.3534C88.244 25.1394 89.1491 27.7941 89.1491 31.3177V36.6392H75.7547C72.8345 36.6392 70.3125 37.2064 68.1887 38.3407C66.0649 39.475 64.4238 41.0557 63.2653 43.083C62.131 45.0861 61.5639 47.4151 61.5639 50.0698C61.5639 52.7004 62.131 55.0293 63.2653 57.0566C64.4238 59.0839 66.0649 60.6646 68.1887 61.7989C70.3125 62.9332 72.8345 63.5004 75.7547 63.5004H89.1491V68.8943C89.1491 72.4179 88.244 75.0726 86.434 76.8586C84.6481 78.6445 81.9571 79.5374 78.3612 79.5374H19.7879ZM75.1393 53.7623C76.177 53.7623 77.0579 53.4003 77.7819 52.6763C78.506 51.9523 78.868 51.0834 78.868 50.0698C78.868 49.032 78.506 48.1632 77.7819 47.4633C77.0579 46.7393 76.177 46.3773 75.1393 46.3773C74.1256 46.3773 73.2568 46.7393 72.5328 47.4633C71.8088 48.1632 71.4468 49.032 71.4468 50.0698C71.4468 51.0834 71.8088 51.9523 72.5328 52.6763C73.2568 53.4003 74.1256 53.7623 75.1393 53.7623ZM75.7547 58.7942C72.9069 58.7942 70.6141 58.0582 68.8765 56.586C67.1388 55.1138 66.27 52.9417 66.27 50.0698C66.27 47.1978 67.1388 45.0258 68.8765 43.5536C70.6141 42.0573 72.9069 41.3091 75.7547 41.3091H88.6423C90.3075 41.3091 91.6107 41.828 92.552 42.8658C93.5173 43.9036 94 45.1585 94 46.6307V53.5089C94 54.9811 93.5173 56.236 92.552 57.2738C91.6107 58.2874 90.3075 58.7942 88.6423 58.7942H75.7547Z" fill="black"/>
</svg>
