<svg width="500" height="500" viewBox="0 0 500 500" fill="none" xmlns="http://www.w3.org/2000/svg">
<path fill-rule="evenodd" clip-rule="evenodd" d="M83.0156 153.594C124.785 79.8169 211.503 41.4285 294.211 60.4375C297.711 61.0975 303.061 62.6977 306.551 63.5977C309.961 64.7176 315.331 66.3273 318.631 67.6572L324.601 69.9072C326.431 70.7172 331.581 72.9268 333.371 73.7168C335.301 74.6468 339.99 77.007 341.95 77.957C343.63 78.927 348.66 81.6672 350.32 82.6172C352.21 83.7572 356.55 86.5266 358.45 87.6865C359.94 88.7365 364.82 92.0765 366.32 93.1465C368.16 94.5265 372.1 97.5965 373.92 98.9863C376.54 101.256 381.1 104.936 383.56 107.376L386.399 110.046L388.229 111.756L390 113.525L373.13 130.395C375.49 133.504 376.91 137.374 376.91 141.574C376.91 145.274 375.809 148.715 373.939 151.604L373.99 151.574C395.5 178.603 408.369 212.812 408.369 249.96C408.369 337.256 337.34 408.284 250.042 408.284C162.744 408.284 91.7158 337.256 91.7158 249.96C91.7159 162.664 162.744 91.6369 250.042 91.6367C287.191 91.6367 321.391 104.506 348.431 126.015C350.45 124.705 352.74 123.785 355.21 123.345C354.93 123.095 354.67 122.875 354.48 122.705L350.261 119.355C347.981 117.456 344.02 114.726 341.58 112.966C340 111.936 336.29 109.556 334.78 108.576C333.35 107.756 329.26 105.386 327.771 104.526C325.011 103.126 320.911 100.916 318.111 99.7061L313.191 97.4766C311.511 96.8066 307.291 95.1361 305.661 94.4961C304.041 93.9461 299.671 92.4567 297.991 91.8867C296.291 91.3967 291.841 90.1262 290.191 89.6562C288.481 89.2463 284.052 88.2167 282.292 87.8066C280.612 87.4967 275.961 86.6367 274.312 86.3467C272.521 86.0967 268.082 85.5263 266.262 85.2764C263.272 85.0464 258.452 84.5466 255.462 84.5166C179.674 80.5369 107.815 133.275 88.2354 206.602C106.325 134.045 175.234 80.5671 250.042 80.5869C253.242 80.6469 257.982 80.6365 261.122 80.8965L266.652 81.2666C268.562 81.4766 273.102 82.0068 274.922 82.2168C276.602 82.4968 281.372 83.2772 283.132 83.5771C284.972 83.9772 289.502 84.9569 291.271 85.3369C292.961 85.7769 297.571 87.0163 299.321 87.4863L304.611 89.1865C307.601 90.0665 312.111 91.8966 315.061 92.9766C316.701 93.6965 321.111 95.5959 322.711 96.2959C324.351 97.0958 328.51 99.1563 330.19 99.9863C332.89 101.506 337.271 103.826 339.851 105.506L344.58 108.445C345.94 109.405 350.1 112.235 351.45 113.195C353.01 114.365 356.52 117.105 358.08 118.285L362.33 121.885C363.18 122.575 364.13 123.425 365.11 124.315C366.73 124.945 368.24 125.795 369.6 126.835L373.35 123.085C371.78 121.555 369.91 119.725 368.91 118.775C367.65 117.645 363.71 114.236 362.37 113.046L357.83 109.445C355.38 107.415 351.11 104.466 348.49 102.576C346.79 101.456 342.801 98.9262 341.181 97.8662C339.651 96.9963 335.241 94.4266 333.641 93.5166L328.48 90.8662C325.65 89.3363 320.921 87.3062 317.961 85.9463C316.111 85.2164 311.622 83.4472 309.852 82.7471C308.132 82.1671 303.371 80.5472 301.591 79.9473C298.401 79.0873 293.571 77.5467 290.371 76.8867C222.853 60.2076 150.335 85.8769 107.726 140.814C93.1659 159.294 82.4756 180.743 76.1357 203.392C80.1556 188.192 86.0459 173.493 93.8457 159.834C132.845 90.8167 214.043 54.8384 291.382 72.5977C294.662 73.2077 299.672 74.7069 302.932 75.5469C306.112 76.6268 311.161 78.067 314.241 79.3369L319.821 81.4473C321.532 82.2073 326.35 84.2665 328.03 85.0166C329.84 85.8965 334.231 88.0963 336.061 88.9863C337.631 89.8863 342.341 92.4567 343.891 93.3467C345.661 94.4167 349.72 96.9959 351.5 98.0859C352.9 99.1059 357.46 102.176 358.87 103.196C360.59 104.486 364.29 107.355 365.99 108.655C368.44 110.775 372.71 114.226 375.02 116.506C375.031 116.516 376.365 117.77 377.56 118.886L382.18 114.266C380.48 112.616 378.39 110.576 377.3 109.536C375.95 108.326 371.73 104.686 370.3 103.406L365.43 99.5459C362.8 97.376 358.241 94.2259 355.431 92.2061C353.611 91.0062 349.341 88.2971 347.601 87.167C345.961 86.237 341.24 83.4768 339.521 82.5068L333.99 79.667C330.97 78.0371 325.9 75.8671 322.73 74.4072C320.76 73.6272 315.951 71.7372 314.051 70.9873C312.221 70.3673 307.121 68.6373 305.211 67.9873C301.801 67.0773 296.631 65.4275 293.201 64.7275C220.903 46.9284 143.405 74.3972 97.8057 133.225C82.246 152.994 70.8255 175.933 64.0557 200.162C68.3556 183.913 74.6658 168.193 83.0156 153.594ZM249.992 101.666C168.204 101.666 101.665 168.204 101.665 249.99C101.665 331.777 168.204 398.314 249.992 398.314L250.002 398.364C331.79 398.364 398.329 331.827 398.329 250.04C398.329 215.411 386.41 183.533 366.45 158.264C364.02 159.434 361.3 160.113 358.42 160.113C354.21 160.113 350.35 158.694 347.24 156.334L307.091 196.482C320.251 210.502 328.331 229.331 328.331 250.03C328.331 293.218 293.191 328.357 250.002 328.357C206.813 328.357 171.674 293.218 171.674 250.03C171.674 206.842 206.813 171.703 250.002 171.703C270.701 171.703 289.531 179.783 303.551 192.942L307.971 188.522C292.691 173.583 271.472 164.693 250.022 164.403C233.163 164.233 216.183 168.983 202.033 178.203L197.354 181.393C196.654 181.983 192.504 185.273 191.844 185.843C190.274 187.353 188.253 189.202 186.703 190.732C183.483 194.182 180.404 197.862 177.674 201.702C172.364 209.522 168.174 218.281 165.494 227.381C167.434 220.001 170.264 212.842 173.954 206.122L176.894 201.182C177.963 199.582 179.114 198.042 180.214 196.473C181.274 194.863 182.604 193.463 183.813 191.973C184.913 190.593 186.453 188.892 187.693 187.702C188.403 186.962 190.073 185.323 190.743 184.623C191.383 184.033 195.464 180.563 196.214 179.903L200.883 176.493C216.003 165.974 234.503 160.394 252.942 160.684C274.732 160.964 296.042 169.603 312.151 184.343L316.821 179.673C299.992 163.194 276.862 153.014 253.232 152.034C232.883 151.084 212.163 156.694 195.094 167.823L189.743 171.483C188.952 172.144 184.183 175.943 183.443 176.583C181.654 178.313 179.344 180.433 177.574 182.183C173.904 186.132 170.384 190.352 167.274 194.752C161.215 203.712 156.444 213.732 153.404 224.142C155.644 215.712 158.894 207.542 163.124 199.872L166.494 194.232C167.714 192.412 169.024 190.652 170.294 188.862C172.064 186.262 174.554 183.693 176.544 181.223C178.274 179.403 180.564 177.173 182.334 175.363C183.054 174.703 187.744 170.743 188.594 169.993C189.684 169.193 194.303 165.844 195.283 165.144C196.143 164.624 198.614 163.104 199.514 162.554C216.533 152.264 236.803 147.304 256.683 148.304C280.462 149.444 303.472 159.294 320.991 175.493L325.641 170.844C308.301 153.834 285.091 142.734 260.842 140.074C207.333 133.795 155.645 168.944 141.335 220.901C153.925 169.854 203.083 133.385 255.632 135.715C256.822 135.775 260.012 135.975 261.242 136.055C262.452 136.195 265.662 136.545 266.832 136.675C268.042 136.855 271.142 137.364 272.382 137.564C273.532 137.814 276.761 138.484 277.892 138.734C297.211 143.304 315.241 153.044 329.851 166.634L334.501 161.983C315.141 142.954 289.172 130.575 262.072 127.635C202.484 120.765 145.174 159.813 129.265 217.671C143.305 161.013 197.904 120.575 256.242 123.235C257.562 123.315 261.102 123.535 262.462 123.625C263.802 123.775 267.362 124.165 268.662 124.315C270.012 124.525 273.442 125.095 274.822 125.315C276.103 125.596 279.682 126.345 280.932 126.615C302.431 131.725 322.481 142.625 338.69 157.794L343.311 153.174C342.221 152.114 341.03 150.954 340.37 150.314C339.4 149.444 336.44 146.854 335.41 145.944L331.971 143.194C330.101 141.644 326.871 139.404 324.881 137.954C323.601 137.114 320.561 135.154 319.331 134.354C318.171 133.685 314.832 131.735 313.611 131.035C311.352 129.895 308.022 128.055 305.722 127.075L301.701 125.245C300.321 124.695 296.871 123.325 295.541 122.795C294.211 122.335 290.632 121.116 289.262 120.646C287.872 120.246 284.232 119.186 282.882 118.806C281.482 118.476 277.862 117.625 276.422 117.285C275.042 117.025 271.242 116.315 269.892 116.075C268.421 115.865 264.792 115.386 263.302 115.186L258.882 114.806C256.372 114.546 252.562 114.496 250.022 114.386C189.504 113.196 132.915 155.894 117.195 214.422C131.955 154.764 188.534 110.726 250.022 110.636C252.662 110.686 256.553 110.666 259.143 110.876L263.692 111.166C265.263 111.336 269.002 111.766 270.502 111.936C271.882 112.156 275.812 112.795 277.262 113.035C278.772 113.355 282.502 114.156 283.962 114.466C285.352 114.826 289.152 115.846 290.592 116.226L294.951 117.615C297.411 118.325 301.132 119.835 303.562 120.715C305.911 121.765 309.661 123.265 311.921 124.445L316.031 126.465C317.281 127.165 320.831 129.105 322.051 129.795C323.381 130.605 326.56 132.595 327.9 133.415L331.681 136.015C333.871 137.465 336.94 139.915 339.04 141.505C339.25 141.685 339.581 141.964 339.961 142.284C339.951 142.044 339.921 141.814 339.921 141.574C339.921 138.694 340.591 135.975 341.771 133.545C316.501 113.596 284.611 101.666 249.992 101.666ZM250.002 181.633C212.323 181.633 181.674 212.282 181.674 249.96C181.674 287.638 212.323 318.287 250.002 318.287C287.681 318.287 318.331 287.638 318.331 249.96C318.331 232.021 311.371 215.682 300.021 203.482L253.532 249.96C252.562 250.93 250.982 250.93 250.002 249.96C249.022 248.98 249.022 247.4 250.002 246.42L260.272 236.15C255.043 231.531 246.892 230.441 240.582 233.641C235.952 235.831 232.413 239.88 230.683 244.79C232.323 235.711 240.772 228.571 250.002 228.091C255.062 227.761 260.103 229.221 264.272 232.15L269.112 227.311C260.155 218.895 245.858 216.884 234.854 222.556L233.638 223.198C226.51 227.083 221.083 233.801 218.603 241.561C219.882 235.981 222.583 230.711 226.513 226.491C234.513 217.642 247.362 213.702 258.992 216.422C264.122 217.552 269.002 219.921 273.182 223.251L277.932 218.501C263.222 204.422 239.822 203.012 223.192 215.041C215.313 220.741 209.393 228.991 206.533 238.33C208.613 229.671 213.263 221.631 219.812 215.552C227.942 207.932 238.853 203.482 250.013 203.112C261.632 202.752 273.162 206.832 282.071 214.382L286.771 209.682C266.602 190.192 234.292 189.272 212.683 207.441C204.043 214.601 197.703 224.341 194.453 235.11C196.903 225.311 201.823 216.141 208.863 208.852C215.873 201.452 224.953 195.922 234.742 193.032C254.062 187.212 275.812 192.162 290.932 205.521V205.492L296.481 199.942C284.282 188.593 267.942 181.633 250.002 181.633Z" fill="#F46300"/>
<path fill-rule="evenodd" clip-rule="evenodd" d="M249.995 0C388.062 6.70329e-05 500 111.945 500 250.01C500 388.074 388.072 500 250.005 500C203.616 500 160.177 487.361 122.938 465.342C116.908 461.772 113.888 459.992 111.248 459.222C108.718 458.482 106.658 458.252 104.028 458.392C101.278 458.532 98.3377 459.462 92.4678 461.312L77.6582 465.981C57.0388 472.481 46.7189 475.731 39.7891 473.211C33.7493 471.011 28.9998 466.261 26.7998 460.222C24.2799 453.292 27.5295 442.972 34.0293 422.354L38.6992 407.533C40.549 401.654 41.4691 398.724 41.6191 395.975C41.7591 393.345 41.519 391.285 40.7891 388.755C40.0191 386.115 38.2389 383.094 34.6689 377.064C12.6396 339.826 4.23258e-05 296.388 0 249.99C0 111.926 111.928 0 249.995 0ZM250.295 41.9688C135.237 41.9688 41.9688 135.245 41.9688 250.3C41.9688 365.355 135.237 458.622 250.295 458.622V458.611C365.353 458.611 458.631 365.345 458.631 250.29C458.631 135.235 365.353 41.9688 250.295 41.9688Z" fill="#F46300"/>
</svg>
