<svg width="175" height="175" viewBox="0 0 175 175" fill="none" xmlns="http://www.w3.org/2000/svg">
<path d="M12.5801 58.9092C15.8862 61.8458 19.8027 64.1093 24.1162 65.4854C21.6987 72.3304 20.3838 79.6995 20.3838 87.3799C20.384 123.649 49.7085 152.973 85.9775 152.973C94.5543 152.973 102.742 151.331 110.246 148.348C111.424 152.684 113.49 156.655 116.235 160.055C106.918 163.942 96.6974 166.091 85.9775 166.091C42.5319 166.091 7.2658 130.826 7.26562 87.3799C7.26562 77.3416 9.14874 67.74 12.5801 58.9092Z" fill="#F46300"/>
<path d="M85.9004 91.2354C106.204 91.2354 118.442 103.55 123.299 113.292C118.442 116.566 114.532 121.134 112.058 126.501H50.6348C47.5482 126.501 46.082 124.417 46.082 121.64C46.0821 113.151 58.8147 91.2356 85.9004 91.2354Z" fill="#F46300"/>
<path d="M85.9775 8.66797C129.423 8.66814 164.688 43.9343 164.688 87.3799C164.688 96.709 163.06 105.66 160.076 113.967C156.552 111.4 152.486 109.533 148.08 108.571C150.342 101.926 151.57 94.7982 151.57 87.3799C151.57 51.1109 122.247 21.7863 85.9775 21.7861C78.4583 21.7861 71.2375 23.0468 64.5146 25.3682C63.1682 21.0426 60.9301 17.1108 58.0166 13.7852C66.7066 10.4783 76.1322 8.66797 85.9775 8.66797Z" fill="#F46300"/>
<path d="M85.9004 42.1562C96.8584 42.1562 105.732 51.7256 105.732 63.3008C105.732 75.6475 96.8582 85.0616 85.9004 84.9844C74.9428 84.907 66.0686 75.6473 66.0684 63.3008C66.0684 51.7257 74.9427 42.1565 85.9004 42.1562Z" fill="#F46300"/>
<path fill-rule="evenodd" clip-rule="evenodd" d="M125.512 130.245C129.522 123.162 137.847 119.477 145.787 121.302C146.123 121.365 146.637 121.519 146.972 121.605C147.299 121.713 147.815 121.867 148.132 121.995L148.705 122.211C148.88 122.289 149.375 122.501 149.547 122.577C149.732 122.666 150.182 122.893 150.37 122.984C150.531 123.077 151.014 123.34 151.174 123.431C151.355 123.541 151.772 123.807 151.954 123.918C152.097 124.019 152.566 124.339 152.71 124.442C152.886 124.575 153.265 124.869 153.439 125.003C153.691 125.221 154.129 125.574 154.365 125.808L154.637 126.064L154.813 126.229L154.983 126.398L153.363 128.018C153.59 128.316 153.726 128.688 153.726 129.091C153.726 129.446 153.621 129.777 153.441 130.054L153.446 130.051C155.511 132.646 156.746 135.93 156.746 139.496C156.746 147.877 149.928 154.695 141.547 154.695C133.166 154.695 126.348 147.877 126.348 139.496C126.348 131.116 133.166 124.297 141.547 124.297C145.113 124.297 148.397 125.533 150.992 127.597C151.186 127.472 151.406 127.383 151.643 127.341C151.616 127.317 151.591 127.296 151.573 127.28L151.168 126.958C150.949 126.776 150.569 126.514 150.335 126.345C150.183 126.246 149.827 126.017 149.682 125.923C149.545 125.845 149.152 125.617 149.009 125.535C148.744 125.4 148.35 125.188 148.082 125.072L147.609 124.858C147.448 124.793 147.043 124.633 146.886 124.572C146.731 124.519 146.311 124.376 146.15 124.321C145.987 124.274 145.56 124.152 145.401 124.107C145.237 124.068 144.812 123.969 144.643 123.929C144.482 123.9 144.035 123.817 143.877 123.789C143.705 123.765 143.279 123.711 143.104 123.687C142.817 123.664 142.354 123.616 142.067 123.614C134.792 123.232 127.893 128.294 126.014 135.334C127.75 128.368 134.365 123.234 141.547 123.236C141.854 123.242 142.309 123.241 142.611 123.266L143.142 123.302C143.325 123.322 143.761 123.373 143.935 123.393C144.097 123.42 144.555 123.495 144.724 123.523C144.9 123.562 145.335 123.656 145.505 123.692C145.667 123.735 146.11 123.854 146.278 123.899L146.786 124.062C147.073 124.146 147.506 124.322 147.789 124.426C147.946 124.495 148.37 124.677 148.523 124.744C148.681 124.821 149.08 125.019 149.241 125.099C149.5 125.245 149.921 125.467 150.169 125.629L150.623 125.911C150.753 126.003 151.153 126.275 151.282 126.367C151.432 126.479 151.769 126.742 151.919 126.855L152.327 127.201C152.408 127.267 152.499 127.349 152.594 127.434C152.749 127.495 152.894 127.576 153.025 127.676L153.385 127.316C153.234 127.169 153.054 126.994 152.958 126.902C152.837 126.794 152.459 126.467 152.331 126.352L151.895 126.007C151.659 125.812 151.25 125.529 150.998 125.347C150.835 125.24 150.452 124.997 150.296 124.895C150.149 124.812 149.726 124.565 149.572 124.478L149.077 124.223C148.805 124.076 148.351 123.881 148.067 123.751C147.89 123.681 147.459 123.511 147.289 123.444C147.124 123.388 146.667 123.233 146.496 123.175C146.189 123.092 145.726 122.944 145.419 122.881C138.937 121.28 131.975 123.744 127.885 129.018C126.487 130.792 125.461 132.851 124.852 135.026C125.238 133.566 125.803 132.155 126.552 130.844C130.296 124.218 138.091 120.764 145.516 122.469C145.83 122.528 146.311 122.672 146.624 122.753C146.93 122.856 147.414 122.994 147.71 123.116L148.246 123.319C148.41 123.392 148.873 123.59 149.034 123.662C149.208 123.746 149.629 123.957 149.805 124.043C149.955 124.129 150.408 124.376 150.556 124.461C150.726 124.564 151.116 124.812 151.287 124.916C151.421 125.014 151.859 125.309 151.995 125.407C152.16 125.531 152.515 125.806 152.678 125.931C152.913 126.134 153.323 126.466 153.545 126.685C153.546 126.686 153.674 126.806 153.789 126.913L154.232 126.47C154.069 126.311 153.868 126.115 153.764 126.015C153.634 125.899 153.229 125.55 153.092 125.427L152.624 125.056C152.372 124.848 151.934 124.546 151.664 124.352C151.49 124.237 151.08 123.977 150.913 123.868C150.755 123.779 150.302 123.514 150.137 123.421L149.606 123.148C149.316 122.992 148.829 122.783 148.525 122.643C148.336 122.568 147.874 122.387 147.692 122.315C147.516 122.255 147.027 122.089 146.843 122.027C146.516 121.939 146.02 121.781 145.69 121.714C138.75 120.005 131.31 122.642 126.932 128.29C125.439 130.187 124.342 132.39 123.692 134.716C124.105 133.156 124.711 131.647 125.512 130.245ZM141.542 125.26C133.691 125.26 127.303 131.648 127.303 139.499C127.303 147.351 133.691 153.738 141.542 153.738L141.543 153.743C149.395 153.743 155.783 147.355 155.783 139.504C155.783 136.18 154.638 133.119 152.722 130.693C152.489 130.806 152.228 130.871 151.951 130.871C151.547 130.871 151.177 130.735 150.878 130.508L147.024 134.362C148.287 135.708 149.063 137.516 149.063 139.503C149.063 143.649 145.689 147.022 141.543 147.022C137.397 147.022 134.024 143.649 134.024 139.503C134.024 135.357 137.397 131.984 141.543 131.984C143.53 131.984 145.338 132.759 146.684 134.022L147.108 133.598C145.641 132.164 143.604 131.311 141.545 131.283C139.927 131.266 138.297 131.722 136.938 132.608L136.489 132.914C136.422 132.97 136.023 133.286 135.96 133.341C135.809 133.486 135.615 133.663 135.466 133.81C135.157 134.141 134.862 134.495 134.6 134.863C134.09 135.614 133.688 136.455 133.43 137.329C133.617 136.62 133.888 135.933 134.243 135.288L134.525 134.813C134.627 134.66 134.738 134.512 134.844 134.361C134.945 134.207 135.073 134.072 135.189 133.929C135.295 133.797 135.442 133.634 135.562 133.519C135.63 133.448 135.79 133.291 135.854 133.224C135.916 133.167 136.308 132.834 136.38 132.771L136.828 132.443C138.279 131.433 140.055 130.898 141.825 130.926C143.917 130.953 145.963 131.782 147.51 133.197L147.958 132.749C146.342 131.167 144.122 130.189 141.853 130.095C139.9 130.004 137.911 130.543 136.272 131.611L135.758 131.962C135.682 132.026 135.225 132.391 135.154 132.452C134.982 132.618 134.76 132.822 134.59 132.99C134.238 133.369 133.9 133.774 133.601 134.196C133.02 135.056 132.562 136.018 132.27 137.018C132.485 136.208 132.797 135.424 133.203 134.688L133.526 134.146C133.644 133.972 133.769 133.803 133.891 133.631C134.061 133.381 134.3 133.134 134.491 132.897C134.657 132.723 134.877 132.509 135.047 132.335C135.116 132.271 135.566 131.891 135.648 131.819C135.753 131.743 136.196 131.421 136.29 131.354C136.373 131.304 136.61 131.158 136.696 131.105C138.33 130.117 140.276 129.641 142.185 129.737C144.467 129.847 146.676 130.792 148.358 132.347L148.804 131.901C147.14 130.268 144.912 129.202 142.584 128.947C137.447 128.344 132.485 131.719 131.111 136.707C132.32 131.806 137.039 128.305 142.084 128.529C142.198 128.534 142.504 128.554 142.622 128.561C142.738 128.575 143.047 128.608 143.159 128.621C143.275 128.638 143.573 128.687 143.692 128.706C143.802 128.73 144.112 128.794 144.221 128.819C146.075 129.257 147.806 130.192 149.209 131.497L149.655 131.05C147.797 129.224 145.303 128.035 142.702 127.753C136.981 127.093 131.48 130.842 129.952 136.396C131.3 130.957 136.542 127.075 142.142 127.331C142.269 127.338 142.609 127.359 142.739 127.368C142.868 127.382 143.21 127.42 143.335 127.434C143.464 127.454 143.793 127.509 143.926 127.53C144.049 127.557 144.392 127.629 144.512 127.655C146.576 128.146 148.501 129.192 150.057 130.648L150.501 130.205C150.396 130.103 150.282 129.992 150.219 129.93C150.125 129.847 149.841 129.598 149.742 129.511L149.412 129.247C149.233 129.098 148.923 128.883 148.732 128.744C148.609 128.663 148.317 128.475 148.199 128.398C148.087 128.334 147.767 128.147 147.65 128.079C147.433 127.97 147.113 127.793 146.892 127.699L146.506 127.524C146.374 127.471 146.043 127.339 145.915 127.288C145.787 127.244 145.444 127.127 145.312 127.082C145.179 127.044 144.829 126.942 144.7 126.905C144.565 126.874 144.218 126.792 144.079 126.759C143.947 126.734 143.582 126.666 143.453 126.643C143.311 126.623 142.963 126.577 142.82 126.558L142.396 126.521C142.155 126.496 141.789 126.492 141.545 126.481C135.735 126.367 130.303 130.466 128.794 136.085C130.211 130.357 135.642 126.13 141.545 126.121C141.799 126.126 142.172 126.124 142.421 126.144L142.857 126.172C143.008 126.188 143.367 126.229 143.511 126.246C143.644 126.267 144.021 126.328 144.16 126.351C144.305 126.382 144.663 126.459 144.803 126.489C144.937 126.523 145.302 126.621 145.44 126.658L145.858 126.791C146.094 126.859 146.452 127.004 146.685 127.089C146.91 127.189 147.27 127.333 147.487 127.447L147.882 127.641C148.002 127.708 148.343 127.894 148.46 127.96C148.588 128.038 148.893 128.229 149.021 128.308L149.384 128.557C149.595 128.697 149.889 128.932 150.091 129.084C150.111 129.102 150.143 129.129 150.179 129.159C150.178 129.136 150.175 129.114 150.175 129.091C150.175 128.815 150.24 128.554 150.353 128.32C147.927 126.405 144.866 125.26 141.542 125.26ZM141.543 132.937C137.926 132.937 134.984 135.879 134.984 139.496C134.984 143.113 137.926 146.056 141.543 146.056C145.16 146.056 148.103 143.113 148.103 139.496C148.103 137.774 147.435 136.205 146.345 135.034L141.882 139.496C141.789 139.589 141.637 139.589 141.543 139.496C141.449 139.402 141.449 139.25 141.543 139.156L142.529 138.17C142.027 137.727 141.245 137.622 140.639 137.93C140.194 138.14 139.855 138.529 139.689 139C139.846 138.128 140.657 137.443 141.543 137.397C142.029 137.365 142.513 137.505 142.913 137.786L143.378 137.322C142.518 136.514 141.145 136.321 140.089 136.865L139.972 136.927C139.288 137.3 138.767 137.945 138.529 138.69C138.652 138.154 138.911 137.648 139.288 137.243C140.056 136.394 141.29 136.015 142.406 136.277C142.899 136.385 143.367 136.612 143.768 136.932L144.224 136.476C142.812 135.124 140.566 134.989 138.969 136.144C138.213 136.691 137.645 137.483 137.37 138.38C137.57 137.548 138.016 136.777 138.645 136.193C139.425 135.461 140.473 135.034 141.544 134.999C142.66 134.964 143.766 135.356 144.622 136.081L145.073 135.629C143.137 133.758 140.035 133.67 137.961 135.414C137.131 136.102 136.522 137.037 136.21 138.071C136.446 137.13 136.918 136.25 137.594 135.55C138.267 134.839 139.138 134.309 140.078 134.031C141.933 133.472 144.021 133.948 145.472 135.23V135.227L146.005 134.694C144.834 133.605 143.265 132.937 141.543 132.937Z" fill="#F46300"/>
<path fill-rule="evenodd" clip-rule="evenodd" d="M141.543 115.5C154.797 115.5 165.543 126.247 165.543 139.501C165.543 152.755 154.798 163.5 141.543 163.5C137.09 163.5 132.92 162.287 129.345 160.173C128.766 159.83 128.476 159.659 128.223 159.585C127.98 159.514 127.782 159.492 127.53 159.506C127.266 159.519 126.983 159.608 126.42 159.786L124.998 160.234C123.019 160.858 122.028 161.17 121.363 160.928C120.783 160.717 120.327 160.261 120.116 159.681C119.874 159.016 120.186 158.025 120.81 156.046L121.258 154.623C121.436 154.059 121.524 153.778 121.538 153.514C121.552 153.261 121.529 153.063 121.459 152.82C121.385 152.567 121.214 152.277 120.871 151.698C118.756 148.123 117.543 143.953 117.543 139.499C117.543 126.245 128.288 115.5 141.543 115.5ZM141.571 119.529C130.526 119.529 121.572 128.483 121.572 139.529C121.572 150.574 130.526 159.528 141.571 159.528V159.527C152.617 159.527 161.572 150.573 161.572 139.528C161.572 128.483 152.617 119.529 141.571 119.529Z" fill="#F46300"/>
<path d="M36.5463 16.2249C26.4573 16.2309 18.2793 24.4104 18.2793 34.5009C18.2793 38.1069 19.3233 41.4684 21.1248 44.3004L21.0813 44.2269L19.3233 51.7254L26.8218 49.9674C29.5833 51.7314 32.9508 52.7784 36.5613 52.7784C46.6548 52.7784 54.8373 44.5959 54.8373 34.5024C54.8373 24.4089 46.6548 16.2264 36.5613 16.2264C36.5553 16.2264 36.5508 16.2264 36.5448 16.2264L36.5463 16.2249ZM26.1078 52.0329L23.0898 52.7364L23.5683 54.7884L25.7898 54.2724C27.3258 55.1274 29.1063 55.8384 30.9798 56.3124L31.1343 56.3454L31.6398 54.3009C29.5488 53.7699 27.7113 52.9884 26.0328 51.9684L26.1228 52.0194L26.1078 52.0329ZM16.2663 47.4639L18.3183 47.9424L19.0218 44.9244C18.0573 43.3314 17.2788 41.4879 16.7838 39.5304L16.7538 39.3909L14.7108 39.8964C15.2178 41.9244 15.9288 43.7049 16.8423 45.3564L16.7838 45.2424L16.2663 47.4639ZM21.2193 53.1654L16.8648 54.1839L17.8803 49.8294L15.8283 49.3479L14.8128 53.7024C14.7768 53.8464 14.7573 54.0129 14.7573 54.1839C14.7573 55.3479 15.7008 56.2929 16.8663 56.2929C17.0373 56.2929 17.2023 56.2719 17.3613 56.2344L17.3463 56.2374L21.6963 55.2399L21.2193 53.1654ZM33.4923 14.3424C34.4103 14.1969 35.4678 14.1144 36.5463 14.1144C37.6248 14.1144 38.6823 14.1969 39.7143 14.3574L39.5988 14.3424L39.9198 12.2574C38.9073 12.0969 37.7388 12.0039 36.5493 12.0039C35.3598 12.0039 34.1913 12.0954 33.0513 12.2739L33.1788 12.2574L33.4923 14.3424ZM55.8063 22.8729L53.9988 23.9544C54.9978 25.5789 55.8003 27.4599 56.3058 29.4579L56.3358 29.5989L58.3803 29.0934C57.7893 26.7369 56.9043 24.6639 55.7493 22.7754L55.8063 22.8729ZM20.1378 22.4079C21.3708 20.7474 22.7958 19.3224 24.4023 18.1284L24.4563 18.0894L23.1903 16.3914C21.3633 17.7489 19.7958 19.3164 18.4818 21.0834L18.4398 21.1434L20.1378 22.4079ZM48.6363 18.0894C50.2968 19.3224 51.7218 20.7474 52.9158 22.3539L52.9548 22.4079L54.6528 21.1434C53.2953 19.3164 51.7278 17.7489 49.9608 16.4349L49.9008 16.3929L48.6363 18.0894ZM52.9548 46.5954C51.7218 48.2544 50.2968 49.6779 48.6903 50.8719L48.6363 50.9109L49.8888 52.6089C51.7203 51.2514 53.2923 49.6839 54.6108 47.9169L54.6528 47.8569L52.9548 46.5954ZM39.6003 54.6609C38.6823 54.8064 37.6248 54.8889 36.5463 54.8889C35.4678 54.8889 34.4103 54.8064 33.3783 54.6459L33.4938 54.6609L33.1758 56.7459C34.1883 56.9064 35.3568 56.9994 36.5463 56.9994C37.7358 56.9994 38.9043 56.9079 40.0443 56.7294L39.9168 56.7459L39.6003 54.6609ZM58.3818 39.8994L56.3388 39.3939C55.8018 41.5359 54.9993 43.4184 53.9493 45.1344L54.0003 45.0459L55.8078 46.1349C56.9088 44.3409 57.7938 42.2634 58.3503 40.0554L58.3833 39.9009L58.3818 39.8994ZM56.9313 34.5009C56.9313 34.5054 56.9313 34.5099 56.9313 34.5144C56.9313 35.5884 56.8488 36.6429 56.6883 37.6704L56.7033 37.5564L58.7883 37.8714C58.9488 36.8589 59.0418 35.6904 59.0418 34.5009C59.0418 33.3114 58.9503 32.1429 58.7718 31.0044L58.7883 31.1319L56.7033 31.4484C56.8488 32.3634 56.9313 33.4164 56.9313 34.4904C56.9313 34.4949 56.9313 34.4994 56.9313 34.5039V34.5009ZM48.1743 53.7594L47.0913 51.9519C45.4668 52.9509 43.5858 53.7534 41.5878 54.2589L41.4468 54.2889L41.9523 56.3334C44.3103 55.7424 46.3833 54.8574 48.2718 53.7024L48.1743 53.7579V53.7594ZM16.1613 34.4994C16.1613 34.4949 16.1613 34.4904 16.1613 34.4859C16.1613 33.4119 16.2438 32.3574 16.4043 31.3299L16.3893 31.4439L14.3043 31.1289C14.1438 32.1414 14.0508 33.3099 14.0508 34.4994C14.0508 35.6889 14.1423 36.8574 14.3193 37.9959L14.3028 37.8684L16.3878 37.5519C16.2423 36.6369 16.1598 35.5839 16.1598 34.5099C16.1598 34.5069 16.1598 34.5024 16.1598 34.4994H16.1613ZM17.2863 22.8729C16.1853 24.6654 15.3018 26.7399 14.7438 28.9449L14.7108 29.0994L16.7538 29.6049C17.2908 27.4629 18.0948 25.5804 19.1463 23.8644L19.0953 23.9529L17.2863 22.8729ZM41.9448 12.6639L41.4393 14.7069C43.5813 15.2439 45.4638 16.0464 47.1798 17.0964L47.0913 17.0454L48.1803 15.2379C46.3863 14.1369 44.3088 13.2519 42.1008 12.6954L41.9463 12.6624L41.9448 12.6639ZM31.1478 12.6639L31.6533 14.7069C29.5113 15.2439 27.6288 16.0464 25.9128 17.0964L26.0013 17.0454L24.9183 15.2379C26.7108 14.1369 28.7868 13.2534 30.9918 12.6954L31.1463 12.6624L31.1478 12.6639Z" fill="#F46300"/>
</svg>
