<svg width="60" height="60" viewBox="0 0 60 60" fill="none" xmlns="http://www.w3.org/2000/svg">
<g clip-path="url(#clip0_981_2038)">
<g opacity="0.6">
<path d="M12.9008 40.2949C12.9008 42.1228 12.9036 43.2773 12.9749 44.1498C13.0428 44.9803 13.1542 45.2339 13.1967 45.3173C13.457 45.8283 13.8725 46.2437 14.3835 46.5041C14.4669 46.5466 14.7204 46.658 15.551 46.7259C16.4235 46.7972 17.578 46.8 19.4059 46.8H22.5008V49.8949C22.5008 50.0664 22.5013 50.2348 22.5014 50.4H19.4059C15.9793 50.4 14.2124 50.4001 12.8771 49.7742L12.7493 49.7115C11.598 49.1249 10.6553 48.1999 10.047 47.0622L9.98926 46.9515C9.38694 45.7693 9.31166 44.2675 9.30225 41.5409L9.30078 40.2949V34.2H12.9008V40.2949Z" fill="#F46300"/>
<path d="M30.4417 0.00146484C33.1683 0.0108747 34.6701 0.0861582 35.8522 0.688477C37.0406 1.29399 38.0068 2.26016 38.6123 3.44854C39.1317 4.46789 39.2589 5.72493 39.2902 7.8H35.6902C35.6805 7.18274 35.6619 6.68196 35.6267 6.2502C35.5588 5.41966 35.4474 5.16613 35.4049 5.08272C35.1445 4.57175 34.729 4.15626 34.2181 3.8959C34.1346 3.85339 33.8811 3.74198 33.0506 3.67412C32.178 3.60283 31.0236 3.6 29.1957 3.6H19.4059C17.578 3.6 16.4235 3.60283 15.551 3.67412C14.7204 3.74198 14.4669 3.85339 14.3835 3.8959C13.8725 4.15626 13.457 4.57175 13.1967 5.08272C13.1542 5.16613 13.0428 5.41966 12.9749 6.2502C12.9036 7.12274 12.9008 8.27718 12.9008 10.1051V28.2H9.30078V10.1051C9.30078 6.67848 9.30071 4.91161 9.92656 3.57627L9.98926 3.44854C10.5759 2.29727 11.5009 1.35448 12.6386 0.746191L12.7493 0.688477C14.1003 0.000124955 15.8688 0 19.4059 0H29.1957L30.4417 0.00146484Z" fill="#F46300"/>
</g>
<path fill-rule="evenodd" clip-rule="evenodd" d="M45.4417 9.60303C48.1683 9.61244 49.6701 9.68772 50.8522 10.29C52.0406 10.8955 53.0068 11.8617 53.6123 13.0501C54.3007 14.4011 54.3008 16.1696 54.3008 19.7066V49.8965L54.2993 51.1425C54.2899 53.8691 54.2146 55.3709 53.6123 56.553C53.0068 57.7414 52.0406 58.7076 50.8522 59.3131C49.6701 59.9154 48.1683 59.9907 45.4417 60.0001L44.1957 60.0016H34.4059C30.9793 60.0016 29.2124 60.0016 27.8771 59.3758L27.7493 59.3131C26.598 58.7265 25.6553 57.8015 25.047 56.6638L24.9893 56.553C24.3869 55.3709 24.3117 53.8691 24.3022 51.1425L24.3008 49.8965V19.7066C24.3008 16.28 24.3007 14.5132 24.9266 13.1778L24.9893 13.0501C25.5759 11.8988 26.5009 10.956 27.6386 10.3478L27.7493 10.29C29.1003 9.60169 30.8688 9.60156 34.4059 9.60156H44.1957L45.4417 9.60303ZM34.4059 13.2016C32.578 13.2016 31.4235 13.2044 30.551 13.2757C29.7204 13.3435 29.4669 13.455 29.3835 13.4975C28.8725 13.7578 28.457 14.1733 28.1967 14.6843C28.1542 14.7677 28.0428 15.0212 27.9749 15.8518C27.9036 16.7243 27.9008 17.8787 27.9008 19.7066V49.8965C27.9008 51.7244 27.9036 52.8788 27.9749 53.7514C28.0428 54.5819 28.1542 54.8354 28.1967 54.9188C28.457 55.4298 28.8725 55.8453 29.3835 56.1057C29.4669 56.1482 29.7204 56.2596 30.551 56.3274C31.4235 56.3987 32.578 56.4016 34.4059 56.4016H44.1957C46.0236 56.4016 47.178 56.3987 48.0506 56.3274C48.8811 56.2596 49.1346 56.1482 49.2181 56.1057C49.729 55.8453 50.1445 55.4298 50.4049 54.9188C50.4474 54.8354 50.5588 54.5819 50.6267 53.7514C50.6979 52.8788 50.7008 51.7244 50.7008 49.8965V19.7066C50.7008 17.8787 50.6979 16.7243 50.6267 15.8518C50.5588 15.0212 50.4474 14.7677 50.4049 14.6843C50.1445 14.1733 49.729 13.7578 49.2181 13.4975C49.1346 13.455 48.8811 13.3435 48.0506 13.2757C47.178 13.2044 46.0236 13.2016 44.1957 13.2016H34.4059Z" fill="#F46300"/>
<path d="M17.1153 37.7172C16.6378 38.1947 15.8625 38.1913 15.3892 37.7096C14.9218 37.2338 14.9252 36.4703 15.3968 35.9987L18.8947 32.5008H7.12344C5.6026 32.5008 4.3099 31.9685 3.24531 30.9039C2.18073 29.8393 1.64844 28.5466 1.64844 27.0258C1.64844 25.5049 2.18073 24.2122 3.24531 23.1477C4.3099 22.0831 5.6026 21.5508 7.12344 21.5508H7.73177V23.9841H7.12344C6.27177 23.9841 5.55191 24.2781 4.96385 24.8662C4.3758 25.4543 4.08177 26.1741 4.08177 27.0258C4.08177 27.8774 4.3758 28.5973 4.96385 29.1854C5.55191 29.7734 6.27177 30.0674 7.12344 30.0674H18.8947L15.3923 26.5406C14.9239 26.0689 14.9253 25.3073 15.3953 24.8373C15.8665 24.3661 16.6304 24.3661 17.1016 24.8373L22.4423 30.178C23.0532 30.7889 23.0532 31.7793 22.4423 32.3902L17.1153 37.7172Z" fill="#F46300"/>
</g>
<defs>
<clipPath id="clip0_981_2038">
<rect width="60" height="60" fill="white"/>
</clipPath>
</defs>
</svg>
