<svg width="100" height="100" viewBox="0 0 100 100" fill="none" xmlns="http://www.w3.org/2000/svg">
<path d="M19.7879 79.5373C16.1919 79.5373 13.4889 78.6444 11.6789 76.8585C9.89296 75.0725 9 72.4178 9 68.8942V31.3176C9 27.7699 9.89296 25.1151 11.6789 23.3533C13.4889 21.5674 16.1919 20.6745 19.7879 20.6745H78.3612C81.9571 20.6745 84.6481 21.5674 86.434 23.3533C88.244 25.1393 89.1491 27.794 89.1491 31.3176V36.6391H75.7547C72.8345 36.6391 70.3125 37.2063 68.1887 38.3406C66.0649 39.4749 64.4238 41.0556 63.2653 43.0829C62.131 45.086 61.5639 47.415 61.5639 50.0697C61.5639 52.7003 62.131 55.0292 63.2653 57.0565C64.4238 59.0838 66.0649 60.6645 68.1887 61.7988C70.3125 62.9331 72.8345 63.5003 75.7547 63.5003H89.1491V68.8942C89.1491 72.4178 88.244 75.0725 86.434 76.8585C84.6481 78.6444 81.9571 79.5373 78.3612 79.5373H19.7879ZM75.1393 53.7622C76.177 53.7622 77.0579 53.4002 77.7819 52.6762C78.506 51.9522 78.868 51.0833 78.868 50.0697C78.868 49.0319 78.506 48.1631 77.7819 47.4632C77.0579 46.7392 76.177 46.3772 75.1393 46.3772C74.1256 46.3772 73.2568 46.7392 72.5328 47.4632C71.8088 48.1631 71.4468 49.0319 71.4468 50.0697C71.4468 51.0833 71.8088 51.9522 72.5328 52.6762C73.2568 53.4002 74.1256 53.7622 75.1393 53.7622ZM75.7547 58.7941C72.9069 58.7941 70.6141 58.0581 68.8765 56.5859C67.1388 55.1137 66.27 52.9416 66.27 50.0697C66.27 47.1977 67.1388 45.0257 68.8765 43.5535C70.6141 42.0572 72.9069 41.309 75.7547 41.309H88.6423C90.3075 41.309 91.6107 41.8279 92.552 42.8657C93.5173 43.9035 94 45.1584 94 46.6306V53.5088C94 54.981 93.5173 56.2359 92.552 57.2737C91.6107 58.2873 90.3075 58.7941 88.6423 58.7941H75.7547Z" fill="#666666" fill-opacity="0.4"/>
</svg>
